<?xml version="1.0" encoding="utf-8"?>
<!-- Generator: Adobe Illustrator 21.0.0, SVG Export Plug-In . SVG Version: 6.00 Build 0)  -->
<svg version="1.1" id="图层_1" xmlns="http://www.w3.org/2000/svg" xmlns:xlink="http://www.w3.org/1999/xlink" x="0px" y="0px"
	 viewBox="0 0 200 200" style="enable-background:new 0 0 200 200;" xml:space="preserve">
<path d="M100,0C44.8,0,0,44.8,0,100c0,55.2,44.8,100,100,100s100-44.8,100-100C200,44.8,155.2,0,100,0z M42.1,44.8
	c4.1-3.7,8.8-5.9,14.3-6c4.2-0.2,8.1,1,11.8,3.1c7.2,4,14.3,8.3,21.7,11.8c6,2.9,5.8,5.6,1,9.3c-7.5,5.8-15.5,6.9-24,2.5
	c-8.1-4.2-15.9-9-24-13.1C38.1,50,38.7,47.8,42.1,44.8z M25.4,75.8c0.8-4.7,2.1-7,7.4-3.9c14,8.1,28.3,15.6,42.4,23.6
	c6.9,3.9,10.7,9.9,11.1,18.1c-0.4,3.3,0.4,7.6-2.9,9.5c-2.8,1.6-5.3-1.7-7.8-3.1c-12.9-7-25.9-14-38.6-21.3
	C27.8,93.4,23.8,85,25.4,75.8z M82.7,177c-5.2-1.8-9.4-4.7-12.3-9.5c-2.3-3.6-3.2-7.5-3.2-11.8c0-8.2,0.1-16.5-0.5-24.7
	c-0.5-6.7,2-7.8,7.6-5.5c8.7,3.6,13.7,10,14,19.6c0.3,9.1,0.1,18.3,0.6,27.4C89.2,177.9,87,178.5,82.7,177z M94.8,79.6
	c-2.6-2-6.7-3.5-6.6-7.4c0.1-3.2,4.2-3.7,6.6-5.1c12.6-7.5,25.3-15,38.1-22.2c9.2-5.2,18.4-4.3,25.5,1.7c3.6,3.1,4.9,5.4-0.4,8.3
	c-14.1,7.9-28,16.3-42,24.3C109.2,83.2,102,83.4,94.8,79.6z M117.9,176.2c-4.4,1.6-7.1,1.7-7.1-4.4c0.1-16.2-0.5-32.4-0.6-48.5
	c-0.1-7.9,3.3-14.2,10.2-18.6c3-1.3,6.4-4.1,9.7-2.2c2.7,1.6,1.1,5.5,1.2,8.3c0.4,14.7,0.7,29.4,0.7,44.1
	C131.9,165.4,126.6,172.9,117.9,176.2z M165.5,100.8c-7.2,4.1-14.4,8-21.3,12.6c-5.6,3.7-7.8,2.1-8.5-3.9c-1.1-9.4,2-16.9,10.1-21.8
	c7.8-4.8,15.9-9,23.6-13.9c4.6-2.9,6.2-1.3,7,3.2c1,5.4,0.5,10.5-2.2,15.4C172.2,96,169.2,98.7,165.5,100.8z"/>
</svg>
