<?xml version="1.0" standalone="no"?><!DOCTYPE svg PUBLIC "-//W3C//DTD SVG 1.1//EN" "http://www.w3.org/Graphics/SVG/1.1/DTD/svg11.dtd"><svg t="1572405551794" class="icon" viewBox="0 0 1024 1024" version="1.1" xmlns="http://www.w3.org/2000/svg" p-id="1917" xmlns:xlink="http://www.w3.org/1999/xlink" width="32" height="32"><defs><style type="text/css"></style></defs><path d="M0 116.970057A116.853029 116.853029 0 0 1 116.970057 0h790.059886A116.853029 116.853029 0 0 1 1024 116.970057v790.059886A116.853029 116.853029 0 0 1 907.029943 1024H116.970057A116.853029 116.853029 0 0 1 0 907.029943V116.970057z m58.514286 0v790.059886C58.514286 939.446857 84.611657 965.485714 116.970057 965.485714h790.059886A58.338743 58.338743 0 0 0 965.485714 907.029943V116.970057A58.338743 58.338743 0 0 0 907.029943 58.514286H116.970057A58.338743 58.338743 0 0 0 58.514286 116.970057z" fill="#3F92FF" p-id="1918"></path><path d="M582.392686 599.771429l-10.0352 10.064457c-15.242971-14.628571-26.682514-29.871543-34.289372-45.728915-7.606857-15.828114-11.439543-33.821257-11.439543-53.920914 0-20.128914 3.803429-38.122057 11.410286-53.950171 7.636114-15.857371 19.075657-31.392914 34.289372-46.635886l10.064457 10.064457c-14.014171 13.399771-24.517486 27.267657-31.5392 41.603657-7.021714 14.336-10.532571 30.602971-10.532572 48.888686 0 18.314971 3.510857 34.6112 10.532572 48.917943 7.021714 14.336 17.554286 27.882057 31.5392 40.696686z m338.651428-89.614629c0 20.128914-3.803429 38.122057-11.410285 53.950171-7.606857 15.857371-19.0464 31.100343-34.289372 45.728915l-10.064457-10.064457c14.043429-12.814629 24.546743-26.360686 31.5392-40.667429 7.021714-14.336 10.532571-30.632229 10.532571-48.917943 0-18.314971-3.510857-34.6112-10.532571-48.917943-7.021714-14.336-17.525029-28.203886-31.5392-41.603657l10.064457-10.064457c15.213714 15.213714 26.653257 30.778514 34.289372 46.635886 7.606857 15.828114 11.410286 33.821257 11.410285 53.950171zM677.4784 513.8432c0 17.671314-4.271543 31.071086-12.785371 40.228571a40.96 40.96 0 0 1-31.100343 13.692343c-6.699886 0-12.4928-1.375086-17.349486-4.096a37.829486 37.829486 0 0 1-12.814629-12.346514v47.542857H585.142857v-136.250514h18.285714v13.750857c3.657143-5.500343 7.899429-9.479314 12.814629-11.907657 4.856686-2.428343 10.6496-3.657143 17.349486-3.657143 12.200229 0 22.557257 4.417829 31.100343 13.253486 8.513829 8.835657 12.785371 22.089143 12.785371 39.789714z m-20.099657 0c0-11.585829-2.282057-20.597029-6.875429-26.975086-4.564114-6.436571-11.410286-9.596343-20.567771-9.596343-7.314286 0-13.546057 3.189029-18.724572 9.596343-5.178514 6.378057-7.7824 15.389257-7.7824 26.975086 0 11.556571 2.603886 20.714057 7.7824 27.413943 5.178514 6.729143 11.410286 10.064457 18.724572 10.064457 9.157486 0 16.003657-3.364571 20.567771-10.064457 4.593371-6.729143 6.875429-15.857371 6.875429-27.4432z m66.589257-80.457143h-18.285714V409.6h18.285714v23.786057z m0 131.657143h-18.285714v-102.4h18.285714v102.4z m120.539429 0h-18.285715v-65.828571c0-7.314286-1.813943-13.1072-5.500343-17.378743a18.285714 18.285714 0 0 0-14.628571-6.407315c-7.899429 0-15.389257 4.096-22.381714 12.346515-7.021714 8.221257-10.532571 18.432-10.532572 30.632228v46.606629h-18.285714v-102.4h18.285714v19.221943c4.885943-6.729143 10.24-11.8784 16.003657-15.5648 5.792914-3.657143 13.253486-5.471086 22.410972-5.471086 10.971429 0 19.192686 3.042743 24.693028 9.157486 5.471086 6.085486 8.221257 13.692343 8.221258 22.820571v72.265143zM238.270171 433.239771l9.479315-3.042742c8.543086-2.633143 14.160457-3.920457 16.939885-3.920458 3.6864 0 6.816914 0.760686 9.4208 2.2528 2.603886 1.492114 3.8912 3.540114 3.8912 6.144s-2.048 5.061486-6.144 7.3728c-4.096 2.340571-15.418514 5.675886-33.9968 10.0352l-0.321828 18.607543c-0.058514 6.641371-0.087771 14.628571-0.087772 23.990857 14.482286-8.747886 23.1424-13.1072 26.0096-13.1072 2.8672 0 4.3008 1.2288 4.3008 3.6864 0 3.2768-10.093714 11.8784-30.3104 25.8048v72.0896l-0.146285 11.790629a157.2864 157.2864 0 0 1-1.287315 17.290971c-0.965486 6.5536-3.2768 13.165714-6.9632 19.8656l-3.393828 5.851429a27.150629 27.150629 0 0 1-5.002972 6.436571 9.771886 9.771886 0 0 1-6.144 2.2528c-1.6384 0-3.130514-0.848457-4.447085-2.545371l-1.287315-1.960229a160.5632 160.5632 0 0 0-18.080914-25.161142l-4.856686-5.149258c-3.013486-3.013486-4.5056-5.3248-4.5056-6.9632 0-1.6384 1.024-2.4576 3.072-2.4576l3.159772 0.146286 3.393828 0.468114c2.340571 0.4096 5.471086 0.6144 9.4208 0.6144a14.189714 14.189714 0 0 0 10.6496-5.12c3.130514-3.423086 5.266286-9.216 6.3488-17.408l1.082515-10.825142c0.877714-10.532571 1.872457-26.624 3.013485-48.157258l-20.245942 13.750858c-16.501029 11.381029-29.023086 20.421486-37.566172 27.121371L157.988571 567.588571c-6.816914 5.997714-11.732114 9.0112-14.7456 9.0112-3.013486 0-8.133486-2.8672-15.36-8.6016-7.226514-5.7344-10.8544-9.684114-10.8544-11.8784 0-2.194286 4.096-3.540114 12.288-4.096 12.288-1.082514 43.154286-16.939886 92.5696-47.5136 0.8192-15.5648 1.2288-31.9488 1.2288-49.152l-12.668342 2.837943c-17.642057 3.832686-29.257143 5.763657-34.845258 5.763657-6.816914 0-12.0832-1.024-15.7696-3.072-3.6864-2.048-5.5296-3.803429-5.5296-5.3248 0-1.199543 1.141029-2.106514 3.393829-2.691657l1.930971-0.380343c22.674286-3.803429 43.8272-8.484571 63.488-13.9264l-0.175542-29.871542a554.920229 554.920229 0 0 0-1.667658-42.422858c-1.2288-12.141714-3.6864-21.240686-7.3728-27.2384-3.6864-5.997714-5.5296-10.386286-5.5296-13.1072 0-2.720914 1.755429-4.096 5.3248-4.096 3.540114 0 10.6496 2.340571 21.2992 6.9632 10.6496 4.651886 15.9744 9.567086 15.9744 14.7456a26.653257 26.653257 0 0 1-2.106514 8.513829l-1.170286 2.954971c-4.9152 11.205486-8.045714 37.2736-9.4208 78.2336z m206.848-80.6912c0 2.194286-1.755429 4.651886-5.3248 7.3728a195.935086 195.935086 0 0 0-18.0224 15.5648l-13.077942 14.336c-17.378743 18.578286-28.174629 27.8528-32.387658 27.8528-1.375086 0-2.048-0.8192-2.048-2.4576 0-1.6384 1.082514-4.242286 3.2768-7.7824l7.723886-12.112457c16.735086-26.8288 24.283429-43.973486 22.586514-51.375543a34.991543 34.991543 0 0 1-1.2288-8.192c0-4.651886 1.6384-6.9632 4.9152-6.9632 3.2768 0 9.684114 3.218286 19.2512 9.6256 9.567086 6.436571 14.336 11.117714 14.336 14.1312z m-95.8464 45.8752c0 9.8304-3.803429 14.7456-11.4688 14.7456a12.551314 12.551314 0 0 1-7.3728-2.6624c-2.4576-1.755429-7.9872-8.484571-16.5888-20.0704l-5.090742-7.050971c-5.207771-7.460571-7.811657-12.141714-7.811658-14.043429 0-2.4576 1.696914-3.6864 5.12-3.6864 3.423086 0 11.4688 2.720914 24.1664 8.192 12.6976 5.471086 19.0464 13.663086 19.0464 24.576z m77.4144 21.2992c4.9152 0 9.157486 1.082514 12.6976 3.2768 3.540114 2.194286 5.3248 4.5056 5.3248 6.9632 0 4.388571-5.3248 7.226514-15.9744 8.6016l-37.2736 5.3248 7.723886 3.803429c4.5056 2.340571 7.665371 4.271543 9.479314 5.822171 2.720914 2.340571 4.096 4.7104 4.096 7.168 0 1.8432-0.292571 4.447086-0.8192 7.840915l-0.6144 3.627885a265.801143 265.801143 0 0 0-2.6624 27.0336l21.474743-5.412571c4.388571-1.082514 8.104229-1.930971 11.088457-2.574629 6.9632-1.492114 14.804114-2.2528 23.552-2.2528 8.747886 0 16.9984 2.106514 24.7808 6.3488 7.7824 4.242286 11.6736 8.133486 11.6736 11.6736 0 4.651886-6.699886 6.9632-20.0704 6.9632l-39.3216-0.4096-13.048685 0.146286c-8.133486 0.175543-15.125943 0.526629-20.948115 1.082514a501.76 501.76 0 0 0-0.029257 35.986286l2.896457 87.303314c0 11.205486-1.6384 21.7088-4.9152 31.5392-3.2768 9.8304-6.9632 14.7456-11.0592 14.7456-2.720914 0-5.178514-3.627886-7.3728-10.8544a67.613257 67.613257 0 0 1-3.2768-19.2512c0-5.588114 0.555886-10.912914 1.6384-15.9744a124.050286 124.050286 0 0 0 1.813943-10.912914l0.643657-6.085486c0.555886-6.290286 1.082514-19.2512 1.6384-38.912l1.6384-65.536a1793.170286 1793.170286 0 0 0-49.9712 6.144c-4.096 27.0336-12.580571 49.3568-25.3952 66.9696-12.843886 17.6128-24.7808 29.432686-35.84 35.4304-11.0592 5.997714-18.900114 9.0112-23.552 9.0112-1.6384 0-2.4576-0.6144-2.4576-1.8432 0-0.994743 1.2288-2.633143 3.657143-4.9152l2.077257-1.8432c17.466514-15.5648 30.9248-30.251886 40.3456-44.032 9.4208-13.780114 16.5888-32.416914 21.504-55.9104l-23.1424 3.744915a159.305143 159.305143 0 0 0-11.264 2.194285 43.973486 43.973486 0 0 1-11.4688 1.4336c-4.096 0-8.660114-1.579886-13.7216-4.7104-5.061486-3.130514-7.5776-5.588114-7.5776-7.3728 0-1.521371 2.399086-2.399086 7.226515-2.633142l2.603885-0.029258c12.843886 0 32.768-1.6384 59.8016-4.9152 0.8192-5.997714 1.2288-12.288 1.2288-18.8416 0-16.091429-2.340571-29.227886-6.9632-39.3216a60.269714 60.269714 0 0 1-21.2992-2.048c-6.5536-1.901714-9.8304-3.8912-9.8304-5.9392s2.603886-3.218286 7.7824-3.4816c16.969143-0.731429 39.204571-4.242286 66.794058-10.532571l32.065828-7.460571c18.139429-4.096 29.023086-6.173257 32.621714-6.173258z m-48.3328 26.2144l-45.056 6.9632c9.0112 7.109486 13.5168 14.482286 13.5168 22.1184a27.589486 27.589486 0 0 1-0.4096 4.5056c-0.906971 5.266286-1.755429 11.761371-2.545371 19.485258l-1.141029 12.463542c13.165714-1.872457 24.429714-3.598629 33.821258-5.149257l14.921142-2.633143c0.292571-15.301486-0.555886-26.975086-2.4576-35.0208a62.902857 62.902857 0 0 0-10.6496-22.7328z" fill="#3F92FF" p-id="1919"></path></svg>